<svg xmlns="http://www.w3.org/2000/svg" width="458" height="161" fill="currentColor" viewBox="0 0 458 161">
  <path fill-rule="evenodd" d="M17.996 43.445c.402 6.348 1.708 28.102 2.022 47.963.008.451-.052 8.12-.265 12.793-.543 11.921-1.368 16.413-1.91 18.703-.788 3.33-1.598 4.082-2.11 4.479-2.25 1.742-5.42-.176-6.893-1.157-1.373-.914-2.997-2.219-4.875-3.966-.05-.046-.108-.085-.148-.139-.024-.031-.703-1.39-1.757-2.887-.932-1.322-1.722-2.143-2.06-2.513.912.927 2.486 2.436 5.453 3.548 0 0 5.214 4.461 7.776 4.697.436.041.482-.054.5-.09.039-.08.04-.079.075-.16l-.009.018c.157-.379.96-1.991 1.259-9.826.194-5.088.059-10.077.004-13.272-.091-5.31-.279-9.495-.29-10.146-.056-3.572-.307-19.431-1.82-44.617a875.765 875.765 0 0 0-.29-4.644c-.022-.328-.04-.329-.006-.655a2.62 2.62 0 0 1 1.093-1.867c.429-.303.455-.26 14.921-7.174l44.507-21.277a2.64 2.64 0 0 1 2.185-.038 2.62 2.62 0 0 1 1.552 2.065c.02.149.019.3.02.449 0 .194-.01.193-.128 3.066-1.25 30.423-2.858 79.83-2.026 99.981 1.03-2.243 2.5-5.154 4.643-8.985 2.96-5.29 6.219-10.574 8.091-13.575 4.095-6.563 7.025-9.128 9.927-8.853 2.768.262 3.783 3.013 3.885 3.262.571 1.386 1.537 4.531.917 14.073a143.999 143.999 0 0 1 4-8.056c6.355-11.865 12.875-20.04 17.216-25.069 4.968-5.752 10.759-11.556 17.828-17.657.133-.114.141-.118.317-.108.003 0 .301.144.301.144.033.1.105.196.099.302-.002.027-.011.197-.135.312-6.989 6.486-17.06 16.544-25.981 31.368-5.288 8.787-8.63 16.74-11.035 23.289-.875 2.384-2.132 5.946-3.899 12.146-1.071 3.759-1.738 6.619-1.773 6.735-.042.14-.086.28-.147.413-.485 1.063-1.443 1.351-1.606 1.401-1.121.337-1.97-.191-2.115-.281a2.583 2.583 0 0 1-1.218-2.21c.002-.302.02-.301.067-.6.202-1.264.188-1.265.396-2.529 2.112-12.813 3.474-26.505 2.057-31.268l-.016-.052c-.761.626-2.234 2.173-4.63 6.012-15.831 25.377-13.877 27.203-15.607 30.23-1.313 2.299-3.77 2.185-5.02.696-.836-.997-1.522-2.702-1.853-12.208-.842-24.176 1.358-81.576 2.019-97.845L17.995 43.445Z" clip-rule="evenodd"/>
  <path d="M177.464 124.116c-6.117 0-11.491-1.901-16.12-5.704-4.547-3.803-8.101-9.135-10.664-15.996-2.48-6.944-3.72-15.128-3.72-24.552 0-9.093 1.364-17.03 4.092-23.808 2.811-6.861 6.531-12.152 11.16-15.872 4.712-3.803 9.92-5.704 15.624-5.704 3.389 0 6.365.33 8.928.992 2.563.579 4.836 1.364 6.82 2.356.992.579 1.488 1.447 1.488 2.604l.372 18.848c0 1.405-.496 2.108-1.488 2.108-.909 0-1.488-.537-1.736-1.612l-1.24-4.588c-1.736-6.448-3.761-10.912-6.076-13.392-2.232-2.48-4.919-3.72-8.06-3.72-5.787 0-10.623 3.596-14.508 10.788-3.803 7.11-5.704 17.443-5.704 31 0 9.259.951 17.07 2.852 23.436 1.984 6.365 4.505 11.16 7.564 14.384 3.141 3.224 6.448 4.836 9.92 4.836 3.72 0 6.696-1.157 8.928-3.472 2.315-2.315 4.257-6.779 5.828-13.392l1.488-6.076c.248-1.24.909-1.777 1.984-1.612.909.165 1.364.868 1.364 2.108l-.496 20.088c0 1.157-.537 2.025-1.612 2.604-1.984.992-4.34 1.777-7.068 2.356-2.645.661-5.952.992-9.92.992Zm34.53-76.136c-1.736 0-3.224-.62-4.464-1.86-1.157-1.24-1.736-2.81-1.736-4.712 0-1.901.579-3.43 1.736-4.588 1.24-1.24 2.728-1.86 4.464-1.86 1.736 0 3.183.62 4.34 1.86 1.157 1.157 1.736 2.687 1.736 4.588 0 1.901-.579 3.472-1.736 4.712-1.157 1.24-2.604 1.86-4.34 1.86ZM201.578 123c-1.24 0-1.86-.455-1.86-1.364 0-.744.537-1.24 1.612-1.488l1.488-.248c2.067-.331 3.389-.827 3.968-1.488.579-.744.868-1.984.868-3.72V73.028c0-1.488-.248-2.48-.744-2.976-.413-.579-1.199-.95-2.356-1.116l-2.604-.372c-1.075-.083-1.612-.537-1.612-1.364 0-.661.661-1.116 1.984-1.364 2.563-.413 4.629-1.075 6.2-1.984 1.571-.91 3.1-2.025 4.588-3.348.744-.744 1.364-1.116 1.86-1.116.744 0 1.116.496 1.116 1.488v53.816c0 1.736.248 2.976.744 3.72.496.744 1.447 1.199 2.852 1.364l3.1.372c.909.165 1.364.62 1.364 1.364 0 .992-.62 1.488-1.86 1.488h-20.708Zm38.397 1.116c-2.893 0-5.29-.992-7.192-2.976-1.818-2.067-2.728-5.415-2.728-10.044V64.72c0-.992-.496-1.488-1.488-1.488h-3.596c-1.322 0-1.984-.496-1.984-1.488 0-.661.372-1.24 1.116-1.736 2.728-1.901 4.919-3.927 6.572-6.076 1.654-2.232 3.1-5.25 4.34-9.052.579-1.736 1.282-2.604 2.108-2.604.91 0 1.364.661 1.364 1.984v13.764c0 1.157.579 1.736 1.736 1.736h8.06c1.323 0 1.984.579 1.984 1.736s-.661 1.736-1.984 1.736h-8.06c-1.157 0-1.736.579-1.736 1.736v46.252c0 1.819.29 3.265.868 4.34.579.992 1.654 1.488 3.224 1.488 1.736 0 3.142-.868 4.216-2.604 1.158-1.736 1.902-4.547 2.232-8.432.166-1.157.703-1.736 1.612-1.736.992 0 1.488.62 1.488 1.86-.248 6.365-1.57 10.953-3.968 13.764-2.314 2.811-5.042 4.216-8.184 4.216Zm18.012 24.304c-2.232 0-4.009-.785-5.332-2.356-1.322-1.488-1.984-3.224-1.984-5.208 0-1.571.455-2.893 1.364-3.968.91-1.075 2.15-1.612 3.72-1.612 1.323 0 2.274.289 2.852.868.579.579.992 1.24 1.24 1.984s.496 1.405.744 1.984.744.868 1.488.868c.91 0 1.736-.661 2.48-1.984.744-1.24 1.778-3.927 3.1-8.06.827-2.48 1.323-4.629 1.488-6.448.248-1.819.207-3.761-.124-5.828-.248-2.067-.868-4.588-1.86-7.564l-13.516-43.028c-.578-1.984-1.157-3.265-1.736-3.844-.496-.579-1.322-.992-2.48-1.24l-1.86-.372c-1.074-.248-1.612-.785-1.612-1.612 0-.827.579-1.24 1.736-1.24h20.46c1.158 0 1.736.413 1.736 1.24 0 .91-.537 1.447-1.612 1.612l-1.984.248c-1.984.248-3.265.744-3.844 1.488-.496.661-.454 1.901.124 3.72l10.912 36.332c.248.827.62 1.24 1.116 1.24.579 0 .992-.413 1.24-1.24l10.54-34.1c.662-2.232.827-3.885.496-4.96-.248-1.157-1.405-1.901-3.472-2.232l-2.604-.496c-1.074-.248-1.612-.785-1.612-1.612 0-.827.579-1.24 1.736-1.24h15.748c1.158 0 1.736.455 1.736 1.364 0 .827-.496 1.405-1.488 1.736l-1.116.372c-1.24.413-2.273 1.157-3.1 2.232-.826 1.075-1.694 2.935-2.604 5.58l-18.476 57.66c-1.818 5.787-3.472 10.085-4.96 12.896-1.405 2.811-2.769 4.629-4.092 5.456-1.322.909-2.852 1.364-4.588 1.364ZM297.961 123c-1.24 0-1.86-.455-1.86-1.364 0-.744.537-1.24 1.612-1.488l2.852-.496c1.736-.331 2.852-.785 3.348-1.364.579-.579.868-1.736.868-3.472V41.904c0-1.736-.289-2.893-.868-3.472-.496-.579-1.612-1.033-3.348-1.364l-2.852-.496c-1.075-.248-1.612-.744-1.612-1.488 0-.91.62-1.364 1.86-1.364h22.692c1.24 0 1.86.496 1.86 1.488 0 .744-.455 1.199-1.364 1.364l-3.348.496c-1.736.248-2.893.703-3.472 1.364-.496.661-.744 1.86-.744 3.596v31.124c0 1.157.579 1.736 1.736 1.736h24.552c1.157 0 1.736-.579 1.736-1.736V42.028c0-1.736-.289-2.935-.868-3.596-.496-.661-1.612-1.116-3.348-1.364l-3.348-.496c-.909-.165-1.364-.62-1.364-1.364 0-.992.62-1.488 1.86-1.488h22.692c1.24 0 1.86.455 1.86 1.364 0 .744-.537 1.24-1.612 1.488l-2.852.496c-1.736.33-2.893.785-3.472 1.364-.496.579-.744 1.736-.744 3.472v72.912c0 1.736.248 2.893.744 3.472.579.579 1.736 1.033 3.472 1.364l2.852.496c1.075.248 1.612.744 1.612 1.488 0 .909-.62 1.364-1.86 1.364h-22.692c-1.24 0-1.86-.496-1.86-1.488 0-.744.455-1.199 1.364-1.364l3.348-.496c1.736-.248 2.852-.703 3.348-1.364.579-.661.868-1.86.868-3.596V80.344c0-1.157-.579-1.736-1.736-1.736h-24.552c-1.157 0-1.736.579-1.736 1.736v34.348c0 1.736.248 2.935.744 3.596.579.661 1.736 1.116 3.472 1.364l3.348.496c.909.165 1.364.62 1.364 1.364 0 .992-.62 1.488-1.86 1.488h-22.692Zm82.748 1.116c-4.216 0-8.019-1.405-11.408-4.216-3.307-2.893-5.952-6.82-7.936-11.78-1.984-4.96-2.976-10.499-2.976-16.616 0-6.117.992-11.615 2.976-16.492 1.984-4.877 4.67-8.763 8.06-11.656 3.389-2.893 7.15-4.34 11.284-4.34 4.216 0 7.977 1.447 11.284 4.34 3.389 2.893 6.076 6.779 8.06 11.656 1.984 4.877 2.976 10.375 2.976 16.492 0 6.117-.992 11.656-2.976 16.616-1.902 4.96-4.547 8.887-7.936 11.78-3.39 2.811-7.192 4.216-11.408 4.216Zm0-3.1c8.597 0 12.896-9.837 12.896-29.512 0-19.592-4.299-29.388-12.896-29.388-8.598 0-12.896 9.796-12.896 29.388 0 19.675 4.298 29.512 12.896 29.512Zm25.073 27.404c-1.24 0-1.86-.455-1.86-1.364s.537-1.405 1.612-1.488l1.736-.248c1.736-.248 2.852-.744 3.348-1.488.579-.744.868-1.984.868-3.72V73.028c0-1.488-.248-2.48-.744-2.976-.413-.579-1.199-.95-2.356-1.116l-2.604-.372c-1.075-.083-1.612-.537-1.612-1.364 0-.661.661-1.116 1.984-1.364 2.563-.413 4.505-1.075 5.828-1.984 1.405-.91 2.852-2.025 4.34-3.348.744-.744 1.364-1.116 1.86-1.116.744 0 1.116.496 1.116 1.488v3.844c0 .579.248.992.744 1.24.496.165 1.075-.083 1.736-.744l1.364-1.364c1.653-1.653 3.348-2.852 5.084-3.596 1.736-.827 3.72-1.24 5.952-1.24 3.803 0 7.151 1.281 10.044 3.844 2.976 2.48 5.291 5.952 6.944 10.416 1.736 4.464 2.604 9.713 2.604 15.748 0 6.861-1.075 12.937-3.224 18.228-2.149 5.291-5.125 9.424-8.928 12.4-3.72 2.976-8.019 4.464-12.896 4.464-2.48 0-4.671-.455-6.572-1.364-1.488-.661-2.232-.207-2.232 1.364v15.996c0 1.736.248 2.893.744 3.472.579.661 1.736 1.116 3.472 1.364l4.588.62c.909.165 1.364.62 1.364 1.364 0 .992-.62 1.488-1.86 1.488h-22.444Zm23.312-27.404c4.629 0 8.349-2.728 11.16-8.184 2.893-5.456 4.34-12.813 4.34-22.072 0-8.515-1.24-15.004-3.72-19.468-2.48-4.464-5.993-6.696-10.54-6.696-2.811 0-5.249 1.157-7.316 3.472s-3.1 5.539-3.1 9.672v31.248c0 3.72.827 6.655 2.48 8.804 1.736 2.149 3.968 3.224 6.696 3.224Z"/>
<style>
svg {
    color: #000000;
}
@media (prefers-color-scheme: dark) {
    svg {
    color: #ffffff;
    }
}
</style>
</svg>
