<svg xmlns="http://www.w3.org/2000/svg" width="150" height="150" fill="currentColor" viewBox="0 0 150 150">
  <style>
    svg {
        color: #000;
    }

    @media (prefers-color-scheme: dark) {
      svg {
        color: #fff;
      }
    }
  </style>
  <path fill-rule="evenodd" d="M21.996 48.445c.402 6.348 1.708 28.102 2.022 47.963.008.451-.052 8.12-.265 12.793-.543 11.921-1.368 16.413-1.91 18.703-.788 3.33-1.598 4.082-2.11 4.479-2.25 1.742-5.42-.176-6.893-1.157-1.373-.914-2.997-2.219-4.875-3.966-.05-.046-.108-.085-.148-.139-.024-.031-.703-1.39-1.757-2.887-.932-1.322-1.722-2.143-2.06-2.513.912.927 2.486 2.436 5.453 3.548 0 0 5.214 4.461 7.776 4.697.436.041.482-.054.5-.09.039-.08.04-.079.075-.16l-.009.018c.157-.379.96-1.991 1.259-9.826.194-5.088.059-10.077.004-13.272-.091-5.31-.279-9.495-.29-10.146-.056-3.572-.306-19.431-1.82-44.617a875.765 875.765 0 0 0-.29-4.644c-.022-.328-.04-.329-.006-.655a2.62 2.62 0 0 1 1.093-1.867c.429-.303.455-.26 14.921-7.174l44.507-21.277a2.64 2.64 0 0 1 2.185-.038 2.62 2.62 0 0 1 1.552 2.065c.02.148.019.3.02.449 0 .194-.01.193-.128 3.066-1.25 30.423-2.858 79.83-2.026 99.981 1.03-2.243 2.5-5.154 4.643-8.985 2.96-5.29 6.219-10.574 8.091-13.575 4.095-6.563 7.025-9.128 9.927-8.853 2.768.262 3.783 3.013 3.885 3.262.571 1.386 1.537 4.531.917 14.073a144.067 144.067 0 0 1 4-8.056c6.355-11.865 12.875-20.04 17.216-25.069 4.968-5.752 10.759-11.556 17.828-17.657.133-.114.141-.118.317-.108.003 0 .301.144.301.144.033.1.105.196.099.302-.002.027-.011.197-.135.312-6.989 6.486-17.06 16.544-25.981 31.368-5.288 8.787-8.63 16.74-11.035 23.289-.875 2.384-2.132 5.946-3.899 12.146-1.071 3.759-1.738 6.619-1.772 6.735-.043.14-.087.28-.148.413-.485 1.063-1.443 1.351-1.606 1.401-1.121.337-1.97-.191-2.115-.281a2.583 2.583 0 0 1-1.218-2.21c.002-.302.02-.301.067-.6.202-1.264.188-1.265.396-2.529 2.112-12.813 3.474-26.505 2.057-31.268l-.016-.052c-.761.626-2.234 2.173-4.63 6.012-15.831 25.377-13.877 27.203-15.607 30.23-1.313 2.299-3.77 2.185-5.02.696-.836-.997-1.522-2.702-1.853-12.208-.842-24.176 1.358-81.576 2.019-97.845L21.995 48.445Z" clip-rule="evenodd"/>
</svg>
